<svg id="Layer_1" data-name="Layer 1" xmlns="http://www.w3.org/2000/svg" viewBox="0 0 512 512"><defs><style>.cls-1{fill:#231f20;}</style></defs><title>speech-bubble-glyph</title><path class="cls-1" d="M288.2,160h0a24.85,24.85,0,0,0-17.85,7.58L256,182.21l-14.34-14.62a24.79,24.79,0,0,0-35.65,0,26.91,26.91,0,0,0,0,37.51l50,49.51,50.1-49.6A27,27,0,0,0,306,167.6,24.82,24.82,0,0,0,288.2,160Z"/><path class="cls-1" d="M492.8,32H19.2A19.2,19.2,0,0,0,0,51.2V384a19.2,19.2,0,0,0,19.2,19.2H64v57.6a19.2,19.2,0,0,0,32.77,13.58L168,403.2H492.8A19.2,19.2,0,0,0,512,384V51.2A19.2,19.2,0,0,0,492.8,32ZM333.44,232l-.2.21L256,308.62l-77.23-76.46c-24.87-25.38-24.87-66.32-.19-91.46A63.22,63.22,0,0,1,256,130.41a62.75,62.75,0,0,1,32.19-8.81h0a62.9,62.9,0,0,1,45.24,19.11,65.36,65.36,0,0,1,0,91.24Z"/></svg>